<?xml version="1.0" encoding="utf-8" standalone="no"?>
<!-- Generated by Therion 5.4.1 (2017-04-18) -->
<!DOCTYPE svg PUBLIC "-//W3C//DTD SVG 1.1//EN" "http://www.w3.org/Graphics/SVG/1.1/DTD/svg11.dtd">
<svg width="3.199cm" height="2.988cm" viewBox="-30.104 -30.359 90.693 84.693" xmlns="http://www.w3.org/2000/svg" xmlns:xlink="http://www.w3.org/1999/xlink">
<defs>
<g id="F_aaaaaaa_cob.svg">
</g>
<g id="G_aaaaaaa_cob.svg">
</g>
<g id="B_aaaaaaa_cob.svg">
</g>
<g id="I_aaaaaaa_cob.svg">
</g>
<g id="E_aaaaaaa_cob.svg">
<path fill="none" stroke="#000000" stroke-width="0.350" d="M28.450 3.930L29.650 4.040" />
<path fill="none" stroke="#000000" stroke-width="0.350" d="M28.450 3.930L26.940 2.850" />
<path fill="none" stroke="#000000" stroke-width="0.350" d="M26.940 2.850L28.450 3.930" />
<path fill="none" stroke="#000000" stroke-width="0.350" d="M26.940 2.850L26.250 2.650" />
<path fill="none" stroke="#000000" stroke-width="0.350" d="M26.250 2.650L26.940 2.850" />
<path fill="none" stroke="#000000" stroke-width="0.350" d="M26.250 2.650L24.810 2.010" />
<path fill="none" stroke="#000000" stroke-width="0.350" d="M24.810 2.010L26.250 2.650" />
<path fill="none" stroke="#000000" stroke-width="0.350" d="M24.810 2.010L24.350 2.940" />
<path fill="none" stroke="#000000" stroke-width="0.350" d="M24.350 2.940L24.130 2.910" />
<path fill="none" stroke="#000000" stroke-width="0.350" d="M24.130 2.910L24.350 2.940" />
<path fill="none" stroke="#000000" stroke-width="0.350" d="M24.130 2.910L24.350 2.940" />
<path fill="none" stroke="#000000" stroke-width="0.350" d="M24.130 2.910L23.560 4.000" />
<path fill="none" stroke="#000000" stroke-width="0.350" d="M23.560 4.000L24.130 2.910" />
<path fill="none" stroke="#000000" stroke-width="0.350" d="M23.560 4.000L23.250 4.920" />
<path fill="none" stroke="#000000" stroke-width="0.350" d="M23.250 4.920L23.560 4.000" />
<path fill="none" stroke="#000000" stroke-width="0.350" d="M23.250 4.920L22.790 6.070" />
<path fill="none" stroke="#000000" stroke-width="0.350" d="M22.790 6.070L23.250 4.920" />
<path fill="none" stroke="#000000" stroke-width="0.350" d="M22.790 6.070L21.880 6.710" />
<path fill="none" stroke="#000000" stroke-width="0.350" d="M21.880 6.710L22.790 6.070" />
<path fill="none" stroke="#000000" stroke-width="0.350" d="M21.880 6.710L20.880 6.270" />
<path fill="none" stroke="#000000" stroke-width="0.350" d="M20.880 6.270L21.880 6.710" />
<path fill="none" stroke="#000000" stroke-width="0.350" d="M20.880 6.270L20.440 5.680" />
<path fill="none" stroke="#000000" stroke-width="0.350" d="M20.440 5.680L20.880 6.270" />
<path fill="none" stroke="#000000" stroke-width="0.350" d="M20.440 5.680L18.980 5.610" />
<path fill="none" stroke="#000000" stroke-width="0.350" d="M18.980 5.610L20.440 5.680" />
<path fill="none" stroke="#000000" stroke-width="0.350" d="M18.980 5.610L17.750 4.890" />
<path fill="none" stroke="#000000" stroke-width="0.350" d="M17.750 4.890L18.980 5.610" />
<path fill="none" stroke="#000000" stroke-width="0.350" d="M17.750 4.890L17.220 4.460" />
<path fill="none" stroke="#000000" stroke-width="0.350" d="M17.220 4.460L17.750 4.890" />
<path fill="none" stroke="#000000" stroke-width="0.350" d="M17.220 4.460L16.360 4.460" />
<path fill="none" stroke="#000000" stroke-width="0.350" d="M16.360 4.460L17.220 4.460" />
<path fill="none" stroke="#000000" stroke-width="0.350" d="M16.360 4.460L15.770 5.840" />
<path fill="none" stroke="#000000" stroke-width="0.350" d="M15.770 5.840L16.360 4.460" />
<path fill="none" stroke="#000000" stroke-width="0.350" d="M15.770 5.840L14.830 6.920" />
<path fill="none" stroke="#000000" stroke-width="0.350" d="M14.830 6.920L15.770 5.840" />
<path fill="none" stroke="#000000" stroke-width="0.350" d="M14.830 6.920L14.740 7.930" />
<path fill="none" stroke="#000000" stroke-width="0.350" d="M14.740 7.930L14.830 6.920" />
<path fill="none" stroke="#000000" stroke-width="0.350" d="M14.740 7.930L15.590 8.680" />
<path fill="none" stroke="#000000" stroke-width="0.350" d="M15.590 8.680L14.740 7.930" />
<path fill="none" stroke="#000000" stroke-width="0.350" d="M15.590 8.680L15.500 9.450" />
<path fill="none" stroke="#000000" stroke-width="0.350" d="M15.500 9.450L15.590 8.680" />
<path fill="none" stroke="#000000" stroke-width="0.350" d="M15.500 9.450L17.740 10.640" />
<path fill="none" stroke="#000000" stroke-width="0.350" d="M17.740 10.640L15.500 9.450" />
<path fill="none" stroke="#000000" stroke-width="0.350" d="M17.740 10.640L18.080 11.690" />
<path fill="none" stroke="#000000" stroke-width="0.350" d="M18.080 11.690L17.740 10.640" />
<path fill="none" stroke="#000000" stroke-width="0.350" d="M18.080 11.690L18.450 13.290" />
<path fill="none" stroke="#000000" stroke-width="0.350" d="M18.450 13.290L18.080 11.690" />
<path fill="none" stroke="#000000" stroke-width="0.350" d="M18.450 13.290L17.610 13.540" />
<path fill="none" stroke="#000000" stroke-width="0.350" d="M32.240 20.860L31.040 20.500" />
<path fill="none" stroke="#000000" stroke-width="0.350" d="M31.040 20.500L28.950 19.810" />
<path fill="none" stroke="#000000" stroke-width="0.350" d="M31.040 20.500L32.240 20.860" />
<path fill="none" stroke="#000000" stroke-width="0.350" d="M28.950 19.810L21.380 17.070" />
<path fill="none" stroke="#000000" stroke-width="0.350" d="M28.950 19.810L31.040 20.500" />
<path fill="none" stroke="#000000" stroke-width="0.350" d="M21.380 17.070L20.320 18.330" />
<path fill="none" stroke="#000000" stroke-width="0.350" d="M21.380 17.070L18.640 17.650" />
<path fill="none" stroke="#000000" stroke-width="0.350" d="M21.380 17.070L28.950 19.810" />
<path fill="none" stroke="#000000" stroke-width="0.350" d="M18.640 17.650L17.300 18.090" />
<path fill="none" stroke="#000000" stroke-width="0.350" d="M18.640 17.650L21.380 17.070" />
<path fill="none" stroke="#000000" stroke-width="0.350" d="M17.300 18.090L18.640 17.650" />
<path fill="none" stroke="#000000" stroke-width="0.350" d="M17.610 20.630L17.610 13.540" />
<path fill="none" stroke="#000000" stroke-width="0.350" d="M17.610 20.630L15.520 19.910" />
<path fill="none" stroke="#000000" stroke-width="0.350" d="M15.520 19.910L17.610 20.630" />
<path fill="none" stroke="#000000" stroke-width="0.350" d="M15.520 19.910L14.800 20.270" />
<path fill="none" stroke="#000000" stroke-width="0.350" d="M14.800 20.270L15.520 19.910" />
<path fill="none" stroke="#000000" stroke-width="0.350" d="M14.800 20.270L13.350 20.080" />
<path fill="none" stroke="#000000" stroke-width="0.350" d="M13.350 20.080L14.800 20.270" />
<path fill="none" stroke="#000000" stroke-width="0.350" d="M13.350 20.080L11.400 19.640" />
<path fill="none" stroke="#000000" stroke-width="0.350" d="M11.400 19.640L13.350 20.080" />
<path fill="none" stroke="#000000" stroke-width="0.350" d="M11.400 19.640L11.070 19.740" />
<path fill="none" stroke="#000000" stroke-width="0.350" d="M11.070 19.740L11.400 19.640" />
<path fill="none" stroke="#000000" stroke-width="0.350" d="M11.070 19.740L9.300 19.780" />
<path fill="none" stroke="#000000" stroke-width="0.350" d="M9.300 19.780L11.070 19.740" />
<path fill="none" stroke="#000000" stroke-width="0.350" d="M9.300 19.780L7.840 20.300" />
<path fill="none" stroke="#000000" stroke-width="0.350" d="M7.840 20.300L9.300 19.780" />
<path fill="none" stroke="#000000" stroke-width="0.350" d="M7.840 20.300L6.700 19.550" />
<path fill="none" stroke="#000000" stroke-width="0.350" d="M6.700 19.550L7.840 20.300" />
<path fill="none" stroke="#000000" stroke-width="0.350" d="M6.700 19.550L3.620 20.020" />
<path fill="none" stroke="#000000" stroke-width="0.350" d="M3.620 20.020L6.700 19.550" />
<path fill="none" stroke="#000000" stroke-width="0.350" d="M3.620 20.020L1.760 20.720" />
<path fill="none" stroke="#000000" stroke-width="0.350" d="M1.760 20.720L3.620 20.020" />
<path fill="none" stroke="#000000" stroke-width="0.350" d="M1.760 20.720L3.850 21.190" />
<path fill="none" stroke="#000000" stroke-width="0.350" d="M3.850 21.190L1.760 20.720" />
<path fill="none" stroke="#000000" stroke-width="0.350" d="M3.850 21.190L4.510 22.070" />
<path fill="none" stroke="#000000" stroke-width="0.350" d="M4.510 22.070L3.850 21.190" />
<path fill="none" stroke="#000000" stroke-width="0.350" d="M4.510 22.070L6.510 22.920" />
<path fill="none" stroke="#000000" stroke-width="0.350" d="M6.510 22.920L4.510 22.070" />
<path fill="none" stroke="#000000" stroke-width="0.350" d="M6.510 22.920L8.550 23.510" />
<path fill="none" stroke="#000000" stroke-width="0.350" d="M8.550 23.510L6.510 22.920" />
<path fill="none" stroke="#000000" stroke-width="0.350" d="M8.550 23.510L11.080 23.750" />
<path fill="none" stroke="#000000" stroke-width="0.350" d="M11.080 23.750L8.550 23.510" />
<path fill="none" stroke="#000000" stroke-width="0.350" d="M11.080 23.750L13.160 24.810" />
<path fill="none" stroke="#000000" stroke-width="0.350" d="M13.160 24.810L11.080 23.750" />
<path fill="none" stroke="#000000" stroke-width="0.350" d="M13.160 24.810L13.740 24.930" />
<path fill="none" stroke="#000000" stroke-width="0.350" d="M13.740 24.930L13.160 24.810" />
<path fill="none" stroke="#000000" stroke-width="0.350" d="M13.740 24.930L16.720 25.990" />
<path fill="none" stroke="#000000" stroke-width="0.350" d="M16.720 25.990L13.740 24.930" />
<path fill="none" stroke="#000000" stroke-width="0.350" d="M16.720 25.990L17.950 24.840" />
<path fill="none" stroke="#000000" stroke-width="0.350" d="M17.950 24.840L16.720 25.990" />
<path fill="none" stroke="#000000" stroke-width="0.350" d="M17.950 24.840L20.640 25.640" />
<path fill="none" stroke="#000000" stroke-width="0.350" d="M20.320 25.420L20.640 25.640" />
<path fill="none" stroke="#000000" stroke-width="0.350" d="M20.320 25.420L20.320 18.330" />
<path fill="none" stroke="#000000" stroke-width="0.350" d="M20.640 25.640L17.950 24.840" />
<path fill="none" stroke="#000000" stroke-width="0.350" d="M20.640 25.640L20.320 25.420" />
<path fill="none" stroke="#000000" stroke-width="0.245" d="M19.240 25.640L22.040 25.640" />
<path fill="none" stroke="#000000" stroke-width="0.245" d="M20.640 24.240L20.640 27.040" />
<path fill="#ffffff" stroke="none" d="M21.200 25.640C21.200 25.789 21.141 25.931 21.036 26.036C20.931 26.141 20.789 26.200 20.640 26.200C20.491 26.200 20.349 26.141 20.244 26.036C20.139 25.931 20.080 25.789 20.080 25.640C20.080 25.491 20.139 25.349 20.244 25.244C20.349 25.139 20.491 25.080 20.640 25.080C20.789 25.080 20.931 25.139 21.036 25.244C21.141 25.349 21.200 25.491 21.200 25.640Z" />
<path fill="none" stroke="#000000" stroke-width="0.350" d="M20.640 25.640h0.001" />
<path fill="none" stroke="#000000" stroke-width="0.245" d="M18.920 25.420L21.720 25.420" />
<path fill="none" stroke="#000000" stroke-width="0.245" d="M20.320 24.020L20.320 26.820" />
<path fill="#ffffff" stroke="none" d="M20.880 25.420C20.880 25.569 20.821 25.711 20.716 25.816C20.611 25.921 20.469 25.980 20.320 25.980C20.171 25.980 20.029 25.921 19.924 25.816C19.819 25.711 19.760 25.569 19.760 25.420C19.760 25.271 19.819 25.129 19.924 25.024C20.029 24.919 20.171 24.860 20.320 24.860C20.469 24.860 20.611 24.919 20.716 25.024C20.821 25.129 20.880 25.271 20.880 25.420Z" />
<path fill="none" stroke="#000000" stroke-width="0.350" d="M20.320 25.420h0.001" />
<path fill="none" stroke="#000000" stroke-width="0.245" d="M16.550 24.840L19.350 24.840" />
<path fill="none" stroke="#000000" stroke-width="0.245" d="M17.950 23.440L17.950 26.240" />
<path fill="#ffffff" stroke="none" d="M18.510 24.840C18.510 24.989 18.451 25.131 18.346 25.236C18.241 25.341 18.099 25.400 17.950 25.400C17.801 25.400 17.659 25.341 17.554 25.236C17.449 25.131 17.390 24.989 17.390 24.840C17.390 24.691 17.449 24.549 17.554 24.444C17.659 24.339 17.801 24.280 17.950 24.280C18.099 24.280 18.241 24.339 18.346 24.444C18.451 24.549 18.510 24.691 18.510 24.840Z" />
<path fill="none" stroke="#000000" stroke-width="0.350" d="M17.950 24.840h0.001" />
<path fill="none" stroke="#000000" stroke-width="0.245" d="M15.320 25.990L18.120 25.990" />
<path fill="none" stroke="#000000" stroke-width="0.245" d="M16.720 24.590L16.720 27.390" />
<path fill="#ffffff" stroke="none" d="M17.280 25.990C17.280 26.139 17.221 26.281 17.116 26.386C17.011 26.491 16.869 26.550 16.720 26.550C16.571 26.550 16.429 26.491 16.324 26.386C16.219 26.281 16.160 26.139 16.160 25.990C16.160 25.841 16.219 25.699 16.324 25.594C16.429 25.489 16.571 25.430 16.720 25.430C16.869 25.430 17.011 25.489 17.116 25.594C17.221 25.699 17.280 25.841 17.280 25.990Z" />
<path fill="none" stroke="#000000" stroke-width="0.350" d="M16.720 25.990h0.001" />
<path fill="none" stroke="#000000" stroke-width="0.245" d="M12.340 24.930L15.140 24.930" />
<path fill="none" stroke="#000000" stroke-width="0.245" d="M13.740 23.530L13.740 26.330" />
<path fill="#ffffff" stroke="none" d="M14.300 24.930C14.300 25.079 14.241 25.221 14.136 25.326C14.031 25.431 13.889 25.490 13.740 25.490C13.591 25.490 13.449 25.431 13.344 25.326C13.239 25.221 13.180 25.079 13.180 24.930C13.180 24.781 13.239 24.639 13.344 24.534C13.449 24.429 13.591 24.370 13.740 24.370C13.889 24.370 14.031 24.429 14.136 24.534C14.241 24.639 14.300 24.781 14.300 24.930Z" />
<path fill="none" stroke="#000000" stroke-width="0.350" d="M13.740 24.930h0.001" />
<path fill="none" stroke="#000000" stroke-width="0.245" d="M11.760 24.810L14.560 24.810" />
<path fill="none" stroke="#000000" stroke-width="0.245" d="M13.160 23.410L13.160 26.210" />
<path fill="#ffffff" stroke="none" d="M13.720 24.810C13.720 24.959 13.661 25.101 13.556 25.206C13.451 25.311 13.309 25.370 13.160 25.370C13.011 25.370 12.869 25.311 12.764 25.206C12.659 25.101 12.600 24.959 12.600 24.810C12.600 24.661 12.659 24.519 12.764 24.414C12.869 24.309 13.011 24.250 13.160 24.250C13.309 24.250 13.451 24.309 13.556 24.414C13.661 24.519 13.720 24.661 13.720 24.810Z" />
<path fill="none" stroke="#000000" stroke-width="0.350" d="M13.160 24.810h0.001" />
<path fill="none" stroke="#000000" stroke-width="0.245" d="M9.680 23.750L12.480 23.750" />
<path fill="none" stroke="#000000" stroke-width="0.245" d="M11.080 22.350L11.080 25.150" />
<path fill="#ffffff" stroke="none" d="M11.640 23.750C11.640 23.899 11.581 24.041 11.476 24.146C11.371 24.251 11.229 24.310 11.080 24.310C10.931 24.310 10.789 24.251 10.684 24.146C10.579 24.041 10.520 23.899 10.520 23.750C10.520 23.601 10.579 23.459 10.684 23.354C10.789 23.249 10.931 23.190 11.080 23.190C11.229 23.190 11.371 23.249 11.476 23.354C11.581 23.459 11.640 23.601 11.640 23.750Z" />
<path fill="none" stroke="#000000" stroke-width="0.350" d="M11.080 23.750h0.001" />
<path fill="none" stroke="#000000" stroke-width="0.245" d="M7.150 23.510L9.950 23.510" />
<path fill="none" stroke="#000000" stroke-width="0.245" d="M8.550 22.110L8.550 24.910" />
<path fill="#ffffff" stroke="none" d="M9.110 23.510C9.110 23.659 9.051 23.801 8.946 23.906C8.841 24.011 8.699 24.070 8.550 24.070C8.401 24.070 8.259 24.011 8.154 23.906C8.049 23.801 7.990 23.659 7.990 23.510C7.990 23.361 8.049 23.219 8.154 23.114C8.259 23.009 8.401 22.950 8.550 22.950C8.699 22.950 8.841 23.009 8.946 23.114C9.051 23.219 9.110 23.361 9.110 23.510Z" />
<path fill="none" stroke="#000000" stroke-width="0.350" d="M8.550 23.510h0.001" />
<path fill="none" stroke="#000000" stroke-width="0.245" d="M5.110 22.920L7.910 22.920" />
<path fill="none" stroke="#000000" stroke-width="0.245" d="M6.510 21.520L6.510 24.320" />
<path fill="#ffffff" stroke="none" d="M7.070 22.920C7.070 23.069 7.011 23.211 6.906 23.316C6.801 23.421 6.659 23.480 6.510 23.480C6.361 23.480 6.219 23.421 6.114 23.316C6.009 23.211 5.950 23.069 5.950 22.920C5.950 22.771 6.009 22.629 6.114 22.524C6.219 22.419 6.361 22.360 6.510 22.360C6.659 22.360 6.801 22.419 6.906 22.524C7.011 22.629 7.070 22.771 7.070 22.920Z" />
<path fill="none" stroke="#000000" stroke-width="0.350" d="M6.510 22.920h0.001" />
<path fill="none" stroke="#000000" stroke-width="0.245" d="M3.110 22.070L5.910 22.070" />
<path fill="none" stroke="#000000" stroke-width="0.245" d="M4.510 20.670L4.510 23.470" />
<path fill="#ffffff" stroke="none" d="M5.070 22.070C5.070 22.219 5.011 22.361 4.906 22.466C4.801 22.571 4.659 22.630 4.510 22.630C4.361 22.630 4.219 22.571 4.114 22.466C4.009 22.361 3.950 22.219 3.950 22.070C3.950 21.921 4.009 21.779 4.114 21.674C4.219 21.569 4.361 21.510 4.510 21.510C4.659 21.510 4.801 21.569 4.906 21.674C5.011 21.779 5.070 21.921 5.070 22.070Z" />
<path fill="none" stroke="#000000" stroke-width="0.350" d="M4.510 22.070h0.001" />
<path fill="none" stroke="#000000" stroke-width="0.245" d="M2.450 21.190L5.250 21.190" />
<path fill="none" stroke="#000000" stroke-width="0.245" d="M3.850 19.790L3.850 22.590" />
<path fill="#ffffff" stroke="none" d="M4.410 21.190C4.410 21.339 4.351 21.481 4.246 21.586C4.141 21.691 3.999 21.750 3.850 21.750C3.701 21.750 3.559 21.691 3.454 21.586C3.349 21.481 3.290 21.339 3.290 21.190C3.290 21.041 3.349 20.899 3.454 20.794C3.559 20.689 3.701 20.630 3.850 20.630C3.999 20.630 4.141 20.689 4.246 20.794C4.351 20.899 4.410 21.041 4.410 21.190Z" />
<path fill="none" stroke="#000000" stroke-width="0.350" d="M3.850 21.190h0.001" />
<path fill="none" stroke="#000000" stroke-width="0.245" d="M0.360 20.720L3.160 20.720" />
<path fill="none" stroke="#000000" stroke-width="0.245" d="M1.760 19.320L1.760 22.120" />
<path fill="#ffffff" stroke="none" d="M2.320 20.720C2.320 20.869 2.261 21.011 2.156 21.116C2.051 21.221 1.909 21.280 1.760 21.280C1.611 21.280 1.469 21.221 1.364 21.116C1.259 21.011 1.200 20.869 1.200 20.720C1.200 20.571 1.259 20.429 1.364 20.324C1.469 20.219 1.611 20.160 1.760 20.160C1.909 20.160 2.051 20.219 2.156 20.324C2.261 20.429 2.320 20.571 2.320 20.720Z" />
<path fill="none" stroke="#000000" stroke-width="0.350" d="M1.760 20.720h0.001" />
<path fill="none" stroke="#000000" stroke-width="0.245" d="M2.220 20.020L5.020 20.020" />
<path fill="none" stroke="#000000" stroke-width="0.245" d="M3.620 18.620L3.620 21.420" />
<path fill="#ffffff" stroke="none" d="M4.180 20.020C4.180 20.169 4.121 20.311 4.016 20.416C3.911 20.521 3.769 20.580 3.620 20.580C3.471 20.580 3.329 20.521 3.224 20.416C3.119 20.311 3.060 20.169 3.060 20.020C3.060 19.871 3.119 19.729 3.224 19.624C3.329 19.519 3.471 19.460 3.620 19.460C3.769 19.460 3.911 19.519 4.016 19.624C4.121 19.729 4.180 19.871 4.180 20.020Z" />
<path fill="none" stroke="#000000" stroke-width="0.350" d="M3.620 20.020h0.001" />
<path fill="none" stroke="#000000" stroke-width="0.245" d="M5.300 19.550L8.100 19.550" />
<path fill="none" stroke="#000000" stroke-width="0.245" d="M6.700 18.150L6.700 20.950" />
<path fill="#ffffff" stroke="none" d="M7.260 19.550C7.260 19.699 7.201 19.841 7.096 19.946C6.991 20.051 6.849 20.110 6.700 20.110C6.551 20.110 6.409 20.051 6.304 19.946C6.199 19.841 6.140 19.699 6.140 19.550C6.140 19.401 6.199 19.259 6.304 19.154C6.409 19.049 6.551 18.990 6.700 18.990C6.849 18.990 6.991 19.049 7.096 19.154C7.201 19.259 7.260 19.401 7.260 19.550Z" />
<path fill="none" stroke="#000000" stroke-width="0.350" d="M6.700 19.550h0.001" />
<path fill="none" stroke="#000000" stroke-width="0.245" d="M6.440 20.300L9.240 20.300" />
<path fill="none" stroke="#000000" stroke-width="0.245" d="M7.840 18.900L7.840 21.700" />
<path fill="#ffffff" stroke="none" d="M8.400 20.300C8.400 20.449 8.341 20.591 8.236 20.696C8.131 20.801 7.989 20.860 7.840 20.860C7.691 20.860 7.549 20.801 7.444 20.696C7.339 20.591 7.280 20.449 7.280 20.300C7.280 20.151 7.339 20.009 7.444 19.904C7.549 19.799 7.691 19.740 7.840 19.740C7.989 19.740 8.131 19.799 8.236 19.904C8.341 20.009 8.400 20.151 8.400 20.300Z" />
<path fill="none" stroke="#000000" stroke-width="0.350" d="M7.840 20.300h0.001" />
<path fill="none" stroke="#000000" stroke-width="0.245" d="M7.900 19.780L10.700 19.780" />
<path fill="none" stroke="#000000" stroke-width="0.245" d="M9.300 18.380L9.300 21.180" />
<path fill="#ffffff" stroke="none" d="M9.860 19.780C9.860 19.929 9.801 20.071 9.696 20.176C9.591 20.281 9.449 20.340 9.300 20.340C9.151 20.340 9.009 20.281 8.904 20.176C8.799 20.071 8.740 19.929 8.740 19.780C8.740 19.631 8.799 19.489 8.904 19.384C9.009 19.279 9.151 19.220 9.300 19.220C9.449 19.220 9.591 19.279 9.696 19.384C9.801 19.489 9.860 19.631 9.860 19.780Z" />
<path fill="none" stroke="#000000" stroke-width="0.350" d="M9.300 19.780h0.001" />
<path fill="none" stroke="#000000" stroke-width="0.245" d="M9.670 19.740L12.470 19.740" />
<path fill="none" stroke="#000000" stroke-width="0.245" d="M11.070 18.340L11.070 21.140" />
<path fill="#ffffff" stroke="none" d="M11.630 19.740C11.630 19.889 11.571 20.031 11.466 20.136C11.361 20.241 11.219 20.300 11.070 20.300C10.921 20.300 10.779 20.241 10.674 20.136C10.569 20.031 10.510 19.889 10.510 19.740C10.510 19.591 10.569 19.449 10.674 19.344C10.779 19.239 10.921 19.180 11.070 19.180C11.219 19.180 11.361 19.239 11.466 19.344C11.571 19.449 11.630 19.591 11.630 19.740Z" />
<path fill="none" stroke="#000000" stroke-width="0.350" d="M11.070 19.740h0.001" />
<path fill="none" stroke="#000000" stroke-width="0.245" d="M10.000 19.640L12.800 19.640" />
<path fill="none" stroke="#000000" stroke-width="0.245" d="M11.400 18.240L11.400 21.040" />
<path fill="#ffffff" stroke="none" d="M11.960 19.640C11.960 19.789 11.901 19.931 11.796 20.036C11.691 20.141 11.549 20.200 11.400 20.200C11.251 20.200 11.109 20.141 11.004 20.036C10.899 19.931 10.840 19.789 10.840 19.640C10.840 19.491 10.899 19.349 11.004 19.244C11.109 19.139 11.251 19.080 11.400 19.080C11.549 19.080 11.691 19.139 11.796 19.244C11.901 19.349 11.960 19.491 11.960 19.640Z" />
<path fill="none" stroke="#000000" stroke-width="0.350" d="M11.400 19.640h0.001" />
<path fill="none" stroke="#000000" stroke-width="0.245" d="M11.950 20.080L14.750 20.080" />
<path fill="none" stroke="#000000" stroke-width="0.245" d="M13.350 18.680L13.350 21.480" />
<path fill="#ffffff" stroke="none" d="M13.910 20.080C13.910 20.229 13.851 20.371 13.746 20.476C13.641 20.581 13.499 20.640 13.350 20.640C13.201 20.640 13.059 20.581 12.954 20.476C12.849 20.371 12.790 20.229 12.790 20.080C12.790 19.931 12.849 19.789 12.954 19.684C13.059 19.579 13.201 19.520 13.350 19.520C13.499 19.520 13.641 19.579 13.746 19.684C13.851 19.789 13.910 19.931 13.910 20.080Z" />
<path fill="none" stroke="#000000" stroke-width="0.350" d="M13.350 20.080h0.001" />
<path fill="none" stroke="#000000" stroke-width="0.245" d="M13.400 20.270L16.200 20.270" />
<path fill="none" stroke="#000000" stroke-width="0.245" d="M14.800 18.870L14.800 21.670" />
<path fill="#ffffff" stroke="none" d="M15.360 20.270C15.360 20.419 15.301 20.561 15.196 20.666C15.091 20.771 14.949 20.830 14.800 20.830C14.651 20.830 14.509 20.771 14.404 20.666C14.299 20.561 14.240 20.419 14.240 20.270C14.240 20.121 14.299 19.979 14.404 19.874C14.509 19.769 14.651 19.710 14.800 19.710C14.949 19.710 15.091 19.769 15.196 19.874C15.301 19.979 15.360 20.121 15.360 20.270Z" />
<path fill="none" stroke="#000000" stroke-width="0.350" d="M14.800 20.270h0.001" />
<path fill="none" stroke="#000000" stroke-width="0.245" d="M14.120 19.910L16.920 19.910" />
<path fill="none" stroke="#000000" stroke-width="0.245" d="M15.520 18.510L15.520 21.310" />
<path fill="#ffffff" stroke="none" d="M16.080 19.910C16.080 20.059 16.021 20.201 15.916 20.306C15.811 20.411 15.669 20.470 15.520 20.470C15.371 20.470 15.229 20.411 15.124 20.306C15.019 20.201 14.960 20.059 14.960 19.910C14.960 19.761 15.019 19.619 15.124 19.514C15.229 19.409 15.371 19.350 15.520 19.350C15.669 19.350 15.811 19.409 15.916 19.514C16.021 19.619 16.080 19.761 16.080 19.910Z" />
<path fill="none" stroke="#000000" stroke-width="0.350" d="M15.520 19.910h0.001" />
<path fill="none" stroke="#000000" stroke-width="0.245" d="M16.210 20.630L19.010 20.630" />
<path fill="none" stroke="#000000" stroke-width="0.245" d="M17.610 19.230L17.610 22.030" />
<path fill="#ffffff" stroke="none" d="M18.170 20.630C18.170 20.779 18.111 20.921 18.006 21.026C17.901 21.131 17.759 21.190 17.610 21.190C17.461 21.190 17.319 21.131 17.214 21.026C17.109 20.921 17.050 20.779 17.050 20.630C17.050 20.481 17.109 20.339 17.214 20.234C17.319 20.129 17.461 20.070 17.610 20.070C17.759 20.070 17.901 20.129 18.006 20.234C18.111 20.339 18.170 20.481 18.170 20.630Z" />
<path fill="none" stroke="#000000" stroke-width="0.350" d="M17.610 20.630h0.001" />
<path fill="none" stroke="#000000" stroke-width="0.245" d="M15.900 18.090L18.700 18.090" />
<path fill="none" stroke="#000000" stroke-width="0.245" d="M17.300 16.690L17.300 19.490" />
<path fill="#ffffff" stroke="none" d="M17.860 18.090C17.860 18.239 17.801 18.381 17.696 18.486C17.591 18.591 17.449 18.650 17.300 18.650C17.151 18.650 17.009 18.591 16.904 18.486C16.799 18.381 16.740 18.239 16.740 18.090C16.740 17.941 16.799 17.799 16.904 17.694C17.009 17.589 17.151 17.530 17.300 17.530C17.449 17.530 17.591 17.589 17.696 17.694C17.801 17.799 17.860 17.941 17.860 18.090Z" />
<path fill="none" stroke="#000000" stroke-width="0.350" d="M17.300 18.090h0.001" />
<path fill="none" stroke="#000000" stroke-width="0.245" d="M17.240 17.650L20.040 17.650" />
<path fill="none" stroke="#000000" stroke-width="0.245" d="M18.640 16.250L18.640 19.050" />
<path fill="#ffffff" stroke="none" d="M19.200 17.650C19.200 17.799 19.141 17.941 19.036 18.046C18.931 18.151 18.789 18.210 18.640 18.210C18.491 18.210 18.349 18.151 18.244 18.046C18.139 17.941 18.080 17.799 18.080 17.650C18.080 17.501 18.139 17.359 18.244 17.254C18.349 17.149 18.491 17.090 18.640 17.090C18.789 17.090 18.931 17.149 19.036 17.254C19.141 17.359 19.200 17.501 19.200 17.650Z" />
<path fill="none" stroke="#000000" stroke-width="0.350" d="M18.640 17.650h0.001" />
<path fill="none" stroke="#000000" stroke-width="0.245" d="M19.980 17.070L22.780 17.070" />
<path fill="none" stroke="#000000" stroke-width="0.245" d="M21.380 15.670L21.380 18.470" />
<path fill="#ffffff" stroke="none" d="M21.940 17.070C21.940 17.219 21.881 17.361 21.776 17.466C21.671 17.571 21.529 17.630 21.380 17.630C21.231 17.630 21.089 17.571 20.984 17.466C20.879 17.361 20.820 17.219 20.820 17.070C20.820 16.921 20.879 16.779 20.984 16.674C21.089 16.569 21.231 16.510 21.380 16.510C21.529 16.510 21.671 16.569 21.776 16.674C21.881 16.779 21.940 16.921 21.940 17.070Z" />
<path fill="none" stroke="#000000" stroke-width="0.350" d="M21.380 17.070h0.001" />
<path fill="none" stroke="#000000" stroke-width="0.245" d="M27.550 19.810L30.350 19.810" />
<path fill="none" stroke="#000000" stroke-width="0.245" d="M28.950 18.410L28.950 21.210" />
<path fill="#ffffff" stroke="none" d="M29.510 19.810C29.510 19.959 29.451 20.101 29.346 20.206C29.241 20.311 29.099 20.370 28.950 20.370C28.801 20.370 28.659 20.311 28.554 20.206C28.449 20.101 28.390 19.959 28.390 19.810C28.390 19.661 28.449 19.519 28.554 19.414C28.659 19.309 28.801 19.250 28.950 19.250C29.099 19.250 29.241 19.309 29.346 19.414C29.451 19.519 29.510 19.661 29.510 19.810Z" />
<path fill="none" stroke="#000000" stroke-width="0.350" d="M28.950 19.810h0.001" />
<path fill="none" stroke="#000000" stroke-width="0.245" d="M29.640 20.500L32.440 20.500" />
<path fill="none" stroke="#000000" stroke-width="0.245" d="M31.040 19.100L31.040 21.900" />
<path fill="#ffffff" stroke="none" d="M31.600 20.500C31.600 20.649 31.541 20.791 31.436 20.896C31.331 21.001 31.189 21.060 31.040 21.060C30.891 21.060 30.749 21.001 30.644 20.896C30.539 20.791 30.480 20.649 30.480 20.500C30.480 20.351 30.539 20.209 30.644 20.104C30.749 19.999 30.891 19.940 31.040 19.940C31.189 19.940 31.331 19.999 31.436 20.104C31.541 20.209 31.600 20.351 31.600 20.500Z" />
<path fill="none" stroke="#000000" stroke-width="0.350" d="M31.040 20.500h0.001" />
<path fill="none" stroke="#000000" stroke-width="0.245" d="M30.840 20.860L33.640 20.860" />
<path fill="none" stroke="#000000" stroke-width="0.245" d="M32.240 19.460L32.240 22.260" />
<path fill="#ffffff" stroke="none" d="M32.800 20.860C32.800 21.009 32.741 21.151 32.636 21.256C32.531 21.361 32.389 21.420 32.240 21.420C32.091 21.420 31.949 21.361 31.844 21.256C31.739 21.151 31.680 21.009 31.680 20.860C31.680 20.711 31.739 20.569 31.844 20.464C31.949 20.359 32.091 20.300 32.240 20.300C32.389 20.300 32.531 20.359 32.636 20.464C32.741 20.569 32.800 20.711 32.800 20.860Z" />
<path fill="none" stroke="#000000" stroke-width="0.350" d="M32.240 20.860h0.001" />
<path fill="none" stroke="#000000" stroke-width="0.245" d="M17.050 13.290L19.850 13.290" />
<path fill="none" stroke="#000000" stroke-width="0.245" d="M18.450 11.890L18.450 14.690" />
<path fill="#ffffff" stroke="none" d="M19.010 13.290C19.010 13.439 18.951 13.581 18.846 13.686C18.741 13.791 18.599 13.850 18.450 13.850C18.301 13.850 18.159 13.791 18.054 13.686C17.949 13.581 17.890 13.439 17.890 13.290C17.890 13.141 17.949 12.999 18.054 12.894C18.159 12.789 18.301 12.730 18.450 12.730C18.599 12.730 18.741 12.789 18.846 12.894C18.951 12.999 19.010 13.141 19.010 13.290Z" />
<path fill="none" stroke="#000000" stroke-width="0.350" d="M18.450 13.290h0.001" />
<path fill="none" stroke="#000000" stroke-width="0.245" d="M16.680 11.690L19.480 11.690" />
<path fill="none" stroke="#000000" stroke-width="0.245" d="M18.080 10.290L18.080 13.090" />
<path fill="#ffffff" stroke="none" d="M18.640 11.690C18.640 11.839 18.581 11.981 18.476 12.086C18.371 12.191 18.229 12.250 18.080 12.250C17.931 12.250 17.789 12.191 17.684 12.086C17.579 11.981 17.520 11.839 17.520 11.690C17.520 11.541 17.579 11.399 17.684 11.294C17.789 11.189 17.931 11.130 18.080 11.130C18.229 11.130 18.371 11.189 18.476 11.294C18.581 11.399 18.640 11.541 18.640 11.690Z" />
<path fill="none" stroke="#000000" stroke-width="0.350" d="M18.080 11.690h0.001" />
<path fill="none" stroke="#000000" stroke-width="0.245" d="M16.340 10.640L19.140 10.640" />
<path fill="none" stroke="#000000" stroke-width="0.245" d="M17.740 9.240L17.740 12.040" />
<path fill="#ffffff" stroke="none" d="M18.300 10.640C18.300 10.789 18.241 10.931 18.136 11.036C18.031 11.141 17.889 11.200 17.740 11.200C17.591 11.200 17.449 11.141 17.344 11.036C17.239 10.931 17.180 10.789 17.180 10.640C17.180 10.491 17.239 10.349 17.344 10.244C17.449 10.139 17.591 10.080 17.740 10.080C17.889 10.080 18.031 10.139 18.136 10.244C18.241 10.349 18.300 10.491 18.300 10.640Z" />
<path fill="none" stroke="#000000" stroke-width="0.350" d="M17.740 10.640h0.001" />
<path fill="none" stroke="#000000" stroke-width="0.245" d="M14.100 9.450L16.900 9.450" />
<path fill="none" stroke="#000000" stroke-width="0.245" d="M15.500 8.050L15.500 10.850" />
<path fill="#ffffff" stroke="none" d="M16.060 9.450C16.060 9.599 16.001 9.741 15.896 9.846C15.791 9.951 15.649 10.010 15.500 10.010C15.351 10.010 15.209 9.951 15.104 9.846C14.999 9.741 14.940 9.599 14.940 9.450C14.940 9.301 14.999 9.159 15.104 9.054C15.209 8.949 15.351 8.890 15.500 8.890C15.649 8.890 15.791 8.949 15.896 9.054C16.001 9.159 16.060 9.301 16.060 9.450Z" />
<path fill="none" stroke="#000000" stroke-width="0.350" d="M15.500 9.450h0.001" />
<path fill="none" stroke="#000000" stroke-width="0.245" d="M14.190 8.680L16.990 8.680" />
<path fill="none" stroke="#000000" stroke-width="0.245" d="M15.590 7.280L15.590 10.080" />
<path fill="#ffffff" stroke="none" d="M16.150 8.680C16.150 8.829 16.091 8.971 15.986 9.076C15.881 9.181 15.739 9.240 15.590 9.240C15.441 9.240 15.299 9.181 15.194 9.076C15.089 8.971 15.030 8.829 15.030 8.680C15.030 8.531 15.089 8.389 15.194 8.284C15.299 8.179 15.441 8.120 15.590 8.120C15.739 8.120 15.881 8.179 15.986 8.284C16.091 8.389 16.150 8.531 16.150 8.680Z" />
<path fill="none" stroke="#000000" stroke-width="0.350" d="M15.590 8.680h0.001" />
<path fill="none" stroke="#000000" stroke-width="0.245" d="M13.340 7.930L16.140 7.930" />
<path fill="none" stroke="#000000" stroke-width="0.245" d="M14.740 6.530L14.740 9.330" />
<path fill="#ffffff" stroke="none" d="M15.300 7.930C15.300 8.079 15.241 8.221 15.136 8.326C15.031 8.431 14.889 8.490 14.740 8.490C14.591 8.490 14.449 8.431 14.344 8.326C14.239 8.221 14.180 8.079 14.180 7.930C14.180 7.781 14.239 7.639 14.344 7.534C14.449 7.429 14.591 7.370 14.740 7.370C14.889 7.370 15.031 7.429 15.136 7.534C15.241 7.639 15.300 7.781 15.300 7.930Z" />
<path fill="none" stroke="#000000" stroke-width="0.350" d="M14.740 7.930h0.001" />
<path fill="none" stroke="#000000" stroke-width="0.245" d="M13.430 6.920L16.230 6.920" />
<path fill="none" stroke="#000000" stroke-width="0.245" d="M14.830 5.520L14.830 8.320" />
<path fill="#ffffff" stroke="none" d="M15.390 6.920C15.390 7.069 15.331 7.211 15.226 7.316C15.121 7.421 14.979 7.480 14.830 7.480C14.681 7.480 14.539 7.421 14.434 7.316C14.329 7.211 14.270 7.069 14.270 6.920C14.270 6.771 14.329 6.629 14.434 6.524C14.539 6.419 14.681 6.360 14.830 6.360C14.979 6.360 15.121 6.419 15.226 6.524C15.331 6.629 15.390 6.771 15.390 6.920Z" />
<path fill="none" stroke="#000000" stroke-width="0.350" d="M14.830 6.920h0.001" />
<path fill="none" stroke="#000000" stroke-width="0.245" d="M14.370 5.840L17.170 5.840" />
<path fill="none" stroke="#000000" stroke-width="0.245" d="M15.770 4.440L15.770 7.240" />
<path fill="#ffffff" stroke="none" d="M16.330 5.840C16.330 5.989 16.271 6.131 16.166 6.236C16.061 6.341 15.919 6.400 15.770 6.400C15.621 6.400 15.479 6.341 15.374 6.236C15.269 6.131 15.210 5.989 15.210 5.840C15.210 5.691 15.269 5.549 15.374 5.444C15.479 5.339 15.621 5.280 15.770 5.280C15.919 5.280 16.061 5.339 16.166 5.444C16.271 5.549 16.330 5.691 16.330 5.840Z" />
<path fill="none" stroke="#000000" stroke-width="0.350" d="M15.770 5.840h0.001" />
<path fill="none" stroke="#000000" stroke-width="0.245" d="M14.960 4.460L17.760 4.460" />
<path fill="none" stroke="#000000" stroke-width="0.245" d="M16.360 3.060L16.360 5.860" />
<path fill="#ffffff" stroke="none" d="M16.920 4.460C16.920 4.609 16.861 4.751 16.756 4.856C16.651 4.961 16.509 5.020 16.360 5.020C16.211 5.020 16.069 4.961 15.964 4.856C15.859 4.751 15.800 4.609 15.800 4.460C15.800 4.311 15.859 4.169 15.964 4.064C16.069 3.959 16.211 3.900 16.360 3.900C16.509 3.900 16.651 3.959 16.756 4.064C16.861 4.169 16.920 4.311 16.920 4.460Z" />
<path fill="none" stroke="#000000" stroke-width="0.350" d="M16.360 4.460h0.001" />
<path fill="none" stroke="#000000" stroke-width="0.245" d="M15.820 4.460L18.620 4.460" />
<path fill="none" stroke="#000000" stroke-width="0.245" d="M17.220 3.060L17.220 5.860" />
<path fill="#ffffff" stroke="none" d="M17.780 4.460C17.780 4.609 17.721 4.751 17.616 4.856C17.511 4.961 17.369 5.020 17.220 5.020C17.071 5.020 16.929 4.961 16.824 4.856C16.719 4.751 16.660 4.609 16.660 4.460C16.660 4.311 16.719 4.169 16.824 4.064C16.929 3.959 17.071 3.900 17.220 3.900C17.369 3.900 17.511 3.959 17.616 4.064C17.721 4.169 17.780 4.311 17.780 4.460Z" />
<path fill="none" stroke="#000000" stroke-width="0.350" d="M17.220 4.460h0.001" />
<path fill="none" stroke="#000000" stroke-width="0.245" d="M16.350 4.890L19.150 4.890" />
<path fill="none" stroke="#000000" stroke-width="0.245" d="M17.750 3.490L17.750 6.290" />
<path fill="#ffffff" stroke="none" d="M18.310 4.890C18.310 5.039 18.251 5.181 18.146 5.286C18.041 5.391 17.899 5.450 17.750 5.450C17.601 5.450 17.459 5.391 17.354 5.286C17.249 5.181 17.190 5.039 17.190 4.890C17.190 4.741 17.249 4.599 17.354 4.494C17.459 4.389 17.601 4.330 17.750 4.330C17.899 4.330 18.041 4.389 18.146 4.494C18.251 4.599 18.310 4.741 18.310 4.890Z" />
<path fill="none" stroke="#000000" stroke-width="0.350" d="M17.750 4.890h0.001" />
<path fill="none" stroke="#000000" stroke-width="0.245" d="M17.580 5.610L20.380 5.610" />
<path fill="none" stroke="#000000" stroke-width="0.245" d="M18.980 4.210L18.980 7.010" />
<path fill="#ffffff" stroke="none" d="M19.540 5.610C19.540 5.759 19.481 5.901 19.376 6.006C19.271 6.111 19.129 6.170 18.980 6.170C18.831 6.170 18.689 6.111 18.584 6.006C18.479 5.901 18.420 5.759 18.420 5.610C18.420 5.461 18.479 5.319 18.584 5.214C18.689 5.109 18.831 5.050 18.980 5.050C19.129 5.050 19.271 5.109 19.376 5.214C19.481 5.319 19.540 5.461 19.540 5.610Z" />
<path fill="none" stroke="#000000" stroke-width="0.350" d="M18.980 5.610h0.001" />
<path fill="none" stroke="#000000" stroke-width="0.245" d="M19.040 5.680L21.840 5.680" />
<path fill="none" stroke="#000000" stroke-width="0.245" d="M20.440 4.280L20.440 7.080" />
<path fill="#ffffff" stroke="none" d="M21.000 5.680C21.000 5.829 20.941 5.971 20.836 6.076C20.731 6.181 20.589 6.240 20.440 6.240C20.291 6.240 20.149 6.181 20.044 6.076C19.939 5.971 19.880 5.829 19.880 5.680C19.880 5.531 19.939 5.389 20.044 5.284C20.149 5.179 20.291 5.120 20.440 5.120C20.589 5.120 20.731 5.179 20.836 5.284C20.941 5.389 21.000 5.531 21.000 5.680Z" />
<path fill="none" stroke="#000000" stroke-width="0.350" d="M20.440 5.680h0.001" />
<path fill="none" stroke="#000000" stroke-width="0.245" d="M19.480 6.270L22.280 6.270" />
<path fill="none" stroke="#000000" stroke-width="0.245" d="M20.880 4.870L20.880 7.670" />
<path fill="#ffffff" stroke="none" d="M21.440 6.270C21.440 6.419 21.381 6.561 21.276 6.666C21.171 6.771 21.029 6.830 20.880 6.830C20.731 6.830 20.589 6.771 20.484 6.666C20.379 6.561 20.320 6.419 20.320 6.270C20.320 6.121 20.379 5.979 20.484 5.874C20.589 5.769 20.731 5.710 20.880 5.710C21.029 5.710 21.171 5.769 21.276 5.874C21.381 5.979 21.440 6.121 21.440 6.270Z" />
<path fill="none" stroke="#000000" stroke-width="0.350" d="M20.880 6.270h0.001" />
<path fill="none" stroke="#000000" stroke-width="0.245" d="M20.480 6.710L23.280 6.710" />
<path fill="none" stroke="#000000" stroke-width="0.245" d="M21.880 5.310L21.880 8.110" />
<path fill="#ffffff" stroke="none" d="M22.440 6.710C22.440 6.859 22.381 7.001 22.276 7.106C22.171 7.211 22.029 7.270 21.880 7.270C21.731 7.270 21.589 7.211 21.484 7.106C21.379 7.001 21.320 6.859 21.320 6.710C21.320 6.561 21.379 6.419 21.484 6.314C21.589 6.209 21.731 6.150 21.880 6.150C22.029 6.150 22.171 6.209 22.276 6.314C22.381 6.419 22.440 6.561 22.440 6.710Z" />
<path fill="none" stroke="#000000" stroke-width="0.350" d="M21.880 6.710h0.001" />
<path fill="none" stroke="#000000" stroke-width="0.245" d="M21.390 6.070L24.190 6.070" />
<path fill="none" stroke="#000000" stroke-width="0.245" d="M22.790 4.670L22.790 7.470" />
<path fill="#ffffff" stroke="none" d="M23.350 6.070C23.350 6.219 23.291 6.361 23.186 6.466C23.081 6.571 22.939 6.630 22.790 6.630C22.641 6.630 22.499 6.571 22.394 6.466C22.289 6.361 22.230 6.219 22.230 6.070C22.230 5.921 22.289 5.779 22.394 5.674C22.499 5.569 22.641 5.510 22.790 5.510C22.939 5.510 23.081 5.569 23.186 5.674C23.291 5.779 23.350 5.921 23.350 6.070Z" />
<path fill="none" stroke="#000000" stroke-width="0.350" d="M22.790 6.070h0.001" />
<path fill="none" stroke="#000000" stroke-width="0.245" d="M21.850 4.920L24.650 4.920" />
<path fill="none" stroke="#000000" stroke-width="0.245" d="M23.250 3.520L23.250 6.320" />
<path fill="#ffffff" stroke="none" d="M23.810 4.920C23.810 5.069 23.751 5.211 23.646 5.316C23.541 5.421 23.399 5.480 23.250 5.480C23.101 5.480 22.959 5.421 22.854 5.316C22.749 5.211 22.690 5.069 22.690 4.920C22.690 4.771 22.749 4.629 22.854 4.524C22.959 4.419 23.101 4.360 23.250 4.360C23.399 4.360 23.541 4.419 23.646 4.524C23.751 4.629 23.810 4.771 23.810 4.920Z" />
<path fill="none" stroke="#000000" stroke-width="0.350" d="M23.250 4.920h0.001" />
<path fill="none" stroke="#000000" stroke-width="0.245" d="M22.160 4.000L24.960 4.000" />
<path fill="none" stroke="#000000" stroke-width="0.245" d="M23.560 2.600L23.560 5.400" />
<path fill="#ffffff" stroke="none" d="M24.120 4.000C24.120 4.149 24.061 4.291 23.956 4.396C23.851 4.501 23.709 4.560 23.560 4.560C23.411 4.560 23.269 4.501 23.164 4.396C23.059 4.291 23.000 4.149 23.000 4.000C23.000 3.851 23.059 3.709 23.164 3.604C23.269 3.499 23.411 3.440 23.560 3.440C23.709 3.440 23.851 3.499 23.956 3.604C24.061 3.709 24.120 3.851 24.120 4.000Z" />
<path fill="none" stroke="#000000" stroke-width="0.350" d="M23.560 4.000h0.001" />
<path fill="none" stroke="#000000" stroke-width="0.245" d="M22.730 2.910L25.530 2.910" />
<path fill="none" stroke="#000000" stroke-width="0.245" d="M24.130 1.510L24.130 4.310" />
<path fill="#ffffff" stroke="none" d="M24.690 2.910C24.690 3.059 24.631 3.201 24.526 3.306C24.421 3.411 24.279 3.470 24.130 3.470C23.981 3.470 23.839 3.411 23.734 3.306C23.629 3.201 23.570 3.059 23.570 2.910C23.570 2.761 23.629 2.619 23.734 2.514C23.839 2.409 23.981 2.350 24.130 2.350C24.279 2.350 24.421 2.409 24.526 2.514C24.631 2.619 24.690 2.761 24.690 2.910Z" />
<path fill="none" stroke="#000000" stroke-width="0.350" d="M24.130 2.910h0.001" />
<path fill="none" stroke="#000000" stroke-width="0.245" d="M22.950 2.940L25.750 2.940" />
<path fill="none" stroke="#000000" stroke-width="0.245" d="M24.350 1.540L24.350 4.340" />
<path fill="#ffffff" stroke="none" d="M24.910 2.940C24.910 3.089 24.851 3.231 24.746 3.336C24.641 3.441 24.499 3.500 24.350 3.500C24.201 3.500 24.059 3.441 23.954 3.336C23.849 3.231 23.790 3.089 23.790 2.940C23.790 2.791 23.849 2.649 23.954 2.544C24.059 2.439 24.201 2.380 24.350 2.380C24.499 2.380 24.641 2.439 24.746 2.544C24.851 2.649 24.910 2.791 24.910 2.940Z" />
<path fill="none" stroke="#000000" stroke-width="0.350" d="M24.350 2.940h0.001" />
<path fill="none" stroke="#000000" stroke-width="0.245" d="M23.410 2.010L26.210 2.010" />
<path fill="none" stroke="#000000" stroke-width="0.245" d="M24.810 0.610L24.810 3.410" />
<path fill="#ffffff" stroke="none" d="M25.370 2.010C25.370 2.159 25.311 2.301 25.206 2.406C25.101 2.511 24.959 2.570 24.810 2.570C24.661 2.570 24.519 2.511 24.414 2.406C24.309 2.301 24.250 2.159 24.250 2.010C24.250 1.861 24.309 1.719 24.414 1.614C24.519 1.509 24.661 1.450 24.810 1.450C24.959 1.450 25.101 1.509 25.206 1.614C25.311 1.719 25.370 1.861 25.370 2.010Z" />
<path fill="none" stroke="#000000" stroke-width="0.350" d="M24.810 2.010h0.001" />
<path fill="none" stroke="#000000" stroke-width="0.245" d="M24.850 2.650L27.650 2.650" />
<path fill="none" stroke="#000000" stroke-width="0.245" d="M26.250 1.250L26.250 4.050" />
<path fill="#ffffff" stroke="none" d="M26.810 2.650C26.810 2.799 26.751 2.941 26.646 3.046C26.541 3.151 26.399 3.210 26.250 3.210C26.101 3.210 25.959 3.151 25.854 3.046C25.749 2.941 25.690 2.799 25.690 2.650C25.690 2.501 25.749 2.359 25.854 2.254C25.959 2.149 26.101 2.090 26.250 2.090C26.399 2.090 26.541 2.149 26.646 2.254C26.751 2.359 26.810 2.501 26.810 2.650Z" />
<path fill="none" stroke="#000000" stroke-width="0.350" d="M26.250 2.650h0.001" />
<path fill="none" stroke="#000000" stroke-width="0.245" d="M25.540 2.850L28.340 2.850" />
<path fill="none" stroke="#000000" stroke-width="0.245" d="M26.940 1.450L26.940 4.250" />
<path fill="#ffffff" stroke="none" d="M27.500 2.850C27.500 2.999 27.441 3.141 27.336 3.246C27.231 3.351 27.089 3.410 26.940 3.410C26.791 3.410 26.649 3.351 26.544 3.246C26.439 3.141 26.380 2.999 26.380 2.850C26.380 2.701 26.439 2.559 26.544 2.454C26.649 2.349 26.791 2.290 26.940 2.290C27.089 2.290 27.231 2.349 27.336 2.454C27.441 2.559 27.500 2.701 27.500 2.850Z" />
<path fill="none" stroke="#000000" stroke-width="0.350" d="M26.940 2.850h0.001" />
<path fill="none" stroke="#000000" stroke-width="0.245" d="M27.050 3.930L29.850 3.930" />
<path fill="none" stroke="#000000" stroke-width="0.245" d="M28.450 2.530L28.450 5.330" />
<path fill="#ffffff" stroke="none" d="M29.010 3.930C29.010 4.079 28.951 4.221 28.846 4.326C28.741 4.431 28.599 4.490 28.450 4.490C28.301 4.490 28.159 4.431 28.054 4.326C27.949 4.221 27.890 4.079 27.890 3.930C27.890 3.781 27.949 3.639 28.054 3.534C28.159 3.429 28.301 3.370 28.450 3.370C28.599 3.370 28.741 3.429 28.846 3.534C28.951 3.639 29.010 3.781 29.010 3.930Z" />
<path fill="none" stroke="#000000" stroke-width="0.350" d="M28.450 3.930h0.001" />
</g>
<g id="X_aaaaaaa_cob.svg">
</g>
<clipPath id="clip_viewBox">
<path d="M-30.104 -54.333L60.589 -54.333L60.589 30.359L-30.104 30.359z" />
</clipPath>
</defs>
<g transform="scale(1,-1)" fill="#000000" stroke="#000000" stroke-linecap="round" stroke-linejoin="round" stroke-miterlimit="10" fill-rule="evenodd" clip-rule="evenodd" clip-path="url(#clip_viewBox)">
<use x="-1.757" y="-25.987" xlink:href="#E_aaaaaaa_cob.svg" />
</g>
</svg>
